# xmcd
#
# Track frame offsets: 
#        150
#        22824
#        47918
#        66371
#        82850
#        101515
#        119852
#        138918
#        156535
#        171782
#        213371
#
# Disc length: 3112 seconds
#
# Revision: 4
# Processed by: cddbd v1.5.2PL0 Copyright (c) Steve Scherf et al.
# Submitted via: ExactAudioCopyFreeDBPlugin 1.0
#
DISCID=970c260b
DTITLE=Raz, Dwa, Trzy - Trudno Nie Wierzyc W Nic
DYEAR=2008
DGENRE=Ballad
TTITLE0=I Tylko To Wiem
TTITLE1=Jutro Mozemy Byc Szczesliwi
TTITLE2=Trudno Nie Wierzyc W Nic
TTITLE3=Tak Mowi Pismo
TTITLE4=Nazywaj Rzeczy Po Imieniu
TTITLE5=Ide Przed Siebie
TTITLE6=Moglbys Temu Zaprzeczyc
TTITLE7=To Znak
TTITLE8=Mam Imie Nazwisko I Prace
TTITLE9=Jestem Tylko Przechodniem
TTITLE10=Policjanci W Atenach Udaja Greka
EXTD=YEAR: 2008
EXTT0=
EXTT1=
EXTT2=
EXTT3=
EXTT4=
EXTT5=
EXTT6=
EXTT7=
EXTT8=
EXTT9=
EXTT10=
PLAYORDER=
